<svg width="448" height="449" viewBox="0 0 448 449" fill="none" xmlns="http://www.w3.org/2000/svg">
<path fill-rule="evenodd" clip-rule="evenodd" d="M96.3874 224.5C96.3874 210.242 98.7502 196.572 102.967 183.751L29.1518 127.256C14.7655 156.531 6.66016 189.518 6.66016 224.5C6.66016 259.452 14.7555 292.419 29.1219 321.673L102.898 265.07C98.7203 252.308 96.3874 238.688 96.3874 224.5Z" fill="#FBBC05"/>
<path fill-rule="evenodd" clip-rule="evenodd" d="M225.994 94.7888C256.9 94.7888 284.815 105.764 306.749 123.724L370.555 59.8665C331.673 25.9421 281.824 4.98877 225.994 4.98877C139.317 4.98877 64.8239 54.6681 29.1523 127.256L102.968 183.751C119.976 132.006 168.459 94.7888 225.994 94.7888Z" fill="#EB4335"/>
<path fill-rule="evenodd" clip-rule="evenodd" d="M225.994 354.211C168.459 354.211 119.976 316.994 102.968 265.249L29.1523 321.733C64.8239 394.332 139.317 444.011 225.994 444.011C279.491 444.011 330.566 424.973 368.9 389.303L298.833 335.014C279.063 347.496 254.168 354.211 225.994 354.211Z" fill="#34A853"/>
<path fill-rule="evenodd" clip-rule="evenodd" d="M435.358 224.5C435.358 211.529 433.364 197.56 430.373 184.589H225.994V269.4H343.637C337.754 298.315 321.743 320.546 298.833 335.014L368.9 389.303C409.167 351.846 435.358 296.05 435.358 224.5Z" fill="#4285F4"/>
</svg>
