<svg width="512" height="512" viewBox="0 0 512 512" fill="none" xmlns="http://www.w3.org/2000/svg">
<g clip-path="url(#clip0_263_36)">
<path d="M93 202C110.747 181.072 134.936 163.889 163.389 151.998C191.842 140.107 223.667 133.882 256 133.882C288.333 133.882 320.158 140.107 348.611 151.998C377.064 163.889 401.253 181.072 419 202V258H93" fill="#FCC40F"/>
<path d="M93 202C110.747 181.072 134.936 163.889 163.389 151.998C191.842 140.107 223.667 133.882 256 133.882C288.333 133.882 320.158 140.107 348.611 151.998C377.064 163.889 401.253 181.072 419 202V258H93" stroke="#000A12" stroke-width="17"/>
<path d="M258 257H225V302L256 349M83 208C86 196 64 162 64 160H141" fill="#000A12"/>
<path d="M159 354C212.572 354 256 310.572 256 257C256 203.428 212.572 160 159 160C105.428 160 62 203.428 62 257C62 310.572 105.428 354 159 354Z" fill="#000A12"/>
<path d="M159 335C202.078 335 237 300.078 237 257C237 213.922 202.078 179 159 179C115.922 179 81 213.922 81 257C81 300.078 115.922 335 159 335Z" fill="white"/>
<path d="M159 307C186.614 307 209 284.614 209 257C209 229.386 186.614 207 159 207C131.386 207 109 229.386 109 257C109 284.614 131.386 307 159 307Z" fill="#000A12"/>
<path d="M159 290C177.225 290 192 275.225 192 257C192 238.775 177.225 224 159 224C140.775 224 126 238.775 126 257C126 275.225 140.775 290 159 290Z" fill="white"/>
<path d="M254 257H287V302L256 349M429 208C426 196 448 162 448 160H371" fill="#000A12"/>
<path d="M353 354C299.428 354 256 310.572 256 257C256 203.428 299.428 160 353 160C406.572 160 450 203.428 450 257C450 310.572 406.572 354 353 354Z" fill="#000A12"/>
<path d="M353 335C309.922 335 275 300.078 275 257C275 213.922 309.922 179 353 179C396.078 179 431 213.922 431 257C431 300.078 396.078 335 353 335Z" fill="white"/>
<path d="M353 307C325.386 307 303 284.614 303 257C303 229.386 325.386 207 353 207C380.614 207 403 229.386 403 257C403 284.614 380.614 307 353 307Z" fill="#000A12"/>
<path d="M353 290C334.775 290 320 275.225 320 257C320 238.775 334.775 224 353 224C371.225 224 386 238.775 386 257C386 275.225 371.225 290 353 290Z" fill="white"/>
<path d="M159 274C168.389 274 176 266.389 176 257C176 247.611 168.389 240 159 240C149.611 240 142 247.611 142 257C142 266.389 149.611 274 159 274Z" fill="#EF6A45"/>
<path d="M353 274C362.389 274 370 266.389 370 257C370 247.611 362.389 240 353 240C343.611 240 336 247.611 336 257C336 266.389 343.611 274 353 274Z" fill="#00B087"/>
</g>
<defs>
<clipPath id="clip0_263_36">
<rect width="512" height="512" fill="white"/>
</clipPath>
</defs>
</svg>
