<svg width="800" height="800" viewBox="0 0 800 800" fill="none" xmlns="http://www.w3.org/2000/svg">
<path d="M326.044 129.676C344.84 113.658 354.237 105.649 364.063 100.953C386.79 90.0905 413.21 90.0905 435.937 100.953C445.763 105.649 455.16 113.658 473.957 129.676C481.437 136.051 485.177 139.238 489.173 141.916C498.33 148.053 508.613 152.313 519.427 154.448C524.147 155.38 529.043 155.771 538.843 156.552C563.46 158.517 575.767 159.499 586.037 163.126C609.787 171.515 628.47 190.197 636.86 213.948C640.487 224.217 641.467 236.525 643.433 261.142C644.213 270.94 644.603 275.838 645.537 280.556C647.67 291.371 651.93 301.655 658.07 310.812C660.747 314.807 663.933 318.547 670.31 326.028C686.327 344.823 694.337 354.223 699.033 364.047C709.893 386.773 709.893 413.193 699.033 435.92C694.337 445.747 686.327 455.143 670.31 473.94C663.933 481.42 660.747 485.16 658.07 489.157C651.93 498.313 647.67 508.597 645.537 519.413C644.603 524.13 644.213 529.03 643.433 538.827C641.467 563.443 640.487 575.75 636.86 586.02C628.47 609.77 609.787 628.454 586.037 636.844C575.767 640.47 563.46 641.45 538.843 643.417C529.043 644.197 524.147 644.59 519.427 645.52C508.613 647.657 498.33 651.913 489.173 658.053C485.177 660.73 481.437 663.917 473.957 670.294C455.16 686.31 445.763 694.32 435.937 699.017C413.21 709.877 386.79 709.877 364.063 699.017C354.237 694.32 344.84 686.31 326.044 670.294C318.564 663.917 314.823 660.73 310.828 658.053C301.671 651.913 291.388 647.657 280.573 645.52C275.855 644.59 270.956 644.197 261.158 643.417C236.542 641.45 224.233 640.47 213.964 636.844C190.213 628.454 171.531 609.77 163.142 586.02C159.515 575.75 158.533 563.443 156.569 538.827C155.787 529.03 155.396 524.13 154.464 519.413C152.329 508.597 148.07 498.313 141.932 489.157C139.255 485.16 136.067 481.42 129.692 473.94C113.674 455.143 105.666 445.747 100.969 435.92C90.1067 413.193 90.1067 386.773 100.969 364.047C105.666 354.22 113.674 344.823 129.692 326.028C136.067 318.547 139.255 314.807 141.932 310.812C148.07 301.655 152.329 291.371 154.464 280.556C155.396 275.838 155.787 270.94 156.569 261.142C158.533 236.525 159.515 224.217 163.142 213.948C171.531 190.197 190.213 171.515 213.964 163.126C224.233 159.499 236.542 158.517 261.158 156.552C270.956 155.771 275.855 155.38 280.573 154.448C291.388 152.313 301.671 148.053 310.828 141.916C314.823 139.238 318.564 136.051 326.044 129.676Z" stroke="#1C8077" stroke-width="50"/>
<path d="M283.333 416.667L350 483.333L516.666 316.667" stroke="#1C8077" stroke-width="50" stroke-linecap="round" stroke-linejoin="round"/>
</svg>
