<svg width="18" height="18" viewBox="0 0 18 18" fill="none" xmlns="http://www.w3.org/2000/svg">
<path d="M12.9039 17.2711C11.8406 17.1503 10.8313 16.8271 9.8888 16.338C5.59381 14.109 2.40574 10.8312 0.51993 6.34099C0.292563 5.79955 0.169929 5.22548 0.0454431 4.65078C-0.062285 4.15348 0.0186487 3.73236 0.319025 3.32024C1.04279 2.32931 1.81692 1.3845 2.7023 0.53323C2.85795 0.383476 3.03264 0.253026 3.20792 0.126291C3.4752 -0.0678005 3.73525 -0.0313066 3.97049 0.188653C4.06324 0.275267 4.14973 0.371729 4.22195 0.475509C4.9943 1.58663 5.71076 2.73197 6.28006 3.96283C6.57841 4.60742 6.53018 4.77958 5.98516 5.24746C5.65665 5.53015 5.33489 5.82092 5.00332 6.09927C4.83411 6.2415 4.79465 6.39828 4.8655 6.60592C5.8199 9.4033 7.67724 11.3155 10.4568 12.3298C10.7195 12.4256 10.9233 12.3764 11.1047 12.1656C11.404 11.8178 11.7088 11.4743 12.018 11.1352C12.3626 10.7574 12.5702 10.6977 13.0324 10.9094C14.371 11.5231 15.6101 12.3056 16.7798 13.1951C17.2133 13.5247 17.2439 13.8322 16.8929 14.2365C15.8822 15.4004 14.6857 16.349 13.3838 17.167C13.2379 17.2587 13.0751 17.281 12.9039 17.2699L12.9039 17.2711Z" fill="white"/>
<path d="M16.5034 8.10983C16.0772 8.10677 15.8521 7.88853 15.828 7.45512C15.6537 4.33934 12.9275 1.58798 9.81131 1.38381C9.40135 1.35696 9.19759 1.14465 9.20003 0.74687C9.20086 0.631867 9.21158 0.516316 9.20127 0.40247C9.17492 0.110429 9.3171 0.0298303 9.58909 0.0398218C10.9058 0.0882322 12.1311 0.46061 13.2472 1.14322C15.5922 2.57727 16.8935 4.68399 17.157 7.41767C17.2238 8.11191 17.1903 8.11538 16.5034 8.10983Z" fill="white"/>
<path d="M13.462 8.088C13.0391 8.08496 12.8032 7.87613 12.7542 7.46149C12.5835 6.01028 11.2354 4.64584 9.78862 4.45799C9.37884 4.40476 9.1754 4.17678 9.17829 3.77406C9.18352 3.04695 9.22457 3.01261 9.9434 3.13897C12.1345 3.52385 13.7293 5.14357 14.0777 7.33806C14.0795 7.35043 14.0825 7.36282 14.0842 7.37582C14.1802 8.0474 14.1397 8.09286 13.462 8.088Z" fill="white"/>
</svg>
