<svg width="20" height="14" viewBox="0 0 20 14" fill="none" xmlns="http://www.w3.org/2000/svg">
<path d="M9.51593 0.0100164C12.0854 0.0100164 14.6548 0.00845135 17.2242 0.0121033C17.4892 0.0121033 17.8576 -0.0698052 17.964 0.194702C18.0511 0.411734 17.7084 0.573464 17.5419 0.740933C15.0946 3.20289 12.6415 5.65858 10.1889 8.11531C9.66201 8.64276 9.37298 8.64485 8.85232 8.12314C6.3215 5.58815 3.79068 3.05211 1.26247 0.514511C1.17221 0.423733 1.00005 0.347042 1.05431 0.196267C1.10961 0.0423625 1.29377 0.0387105 1.43776 0.0230592C1.59688 0.00584275 1.75861 0.01106 1.91878 0.0105383C4.45116 0.0100165 6.98355 0.0105383 9.51593 0.0105383V0.0100164Z" fill="white"/>
<path d="M9.52752 13.4075C6.9581 13.4075 4.38867 13.4085 1.81873 13.4059C1.55265 13.4059 1.18589 13.4842 1.07581 13.2243C0.980859 13 1.32623 12.844 1.49109 12.6776C3.11674 11.0363 4.75648 9.40855 6.37744 7.76308C6.63099 7.50535 6.78646 7.45318 7.04836 7.75056C7.43129 8.18514 7.85909 8.58164 8.27281 8.98858C9.0152 9.71897 10.0122 9.72314 10.7499 8.99745C11.1991 8.55556 11.6462 8.11158 12.0834 7.65769C12.2477 7.48657 12.3646 7.47666 12.5383 7.65143C14.3054 9.43099 16.0792 11.2032 17.8488 12.9807C18.0773 13.2103 18.0439 13.3115 17.7153 13.3736C17.5353 13.4075 17.3469 13.4059 17.1622 13.4064C14.6173 13.4085 12.0724 13.4075 9.52752 13.4075Z" fill="white"/>
<path d="M8.34653e-05 6.71601C8.34653e-05 5.14723 8.34653e-05 3.57897 8.34653e-05 2.01018C8.34653e-05 1.88654 8.34016e-05 1.76289 0.00164853 1.63977C0.0047788 1.41543 -0.0103507 1.12432 0.187378 1.03302C0.405453 0.932329 0.519186 1.22918 0.656396 1.36535C2.33787 3.03795 4.0063 4.72256 5.68986 6.39308C5.92359 6.62524 5.9528 6.7661 5.70134 7.01496C3.96352 8.73556 2.24187 10.4723 0.511882 12.2008C0.422669 12.29 0.350673 12.4642 0.19416 12.4027C0.0611237 12.3505 0.045994 12.1804 0.0251256 12.0495C8.34425e-05 11.8919 0.00112691 11.7297 0.00112691 11.5695C-0.000438222 9.95166 8.34653e-05 8.33332 8.34653e-05 6.71549V6.71601Z" fill="white"/>
<path d="M19.0321 6.73807C19.0321 8.38041 19.0321 10.0233 19.0321 11.6656C19.0321 11.8769 19.0248 12.0851 18.9382 12.2833C18.8725 12.4331 18.7864 12.4706 18.6612 12.3449C18.609 12.2922 18.5553 12.2411 18.5031 12.1884C16.7846 10.4662 15.0697 8.73987 13.3434 7.02553C13.1107 6.79441 13.0773 6.65407 13.3303 6.40365C15.0682 4.68305 16.7893 2.94627 18.5193 1.21785C18.6085 1.12863 18.681 0.954381 18.8365 1.01438C18.97 1.06551 18.9852 1.2361 19.006 1.36653C19.0311 1.52357 19.0305 1.68634 19.0305 1.84651C19.0321 3.47685 19.0316 5.1072 19.0316 6.73702L19.0321 6.73807Z" fill="white"/>
</svg>
